<?xml version="1.0" encoding="UTF-8" standalone="no"?>
<!-- Created with Inkscape (http://www.inkscape.org/) -->

<svg
   width="125mm"
   height="100mm"
   viewBox="0 0 125 100"
   version="1.1"
   id="svg5"
   xml:space="preserve"
   inkscape:version="1.2.1 (9c6d41e410, 2022-07-14)"
   sodipodi:docname="狗狗logo.svg"
   xmlns:inkscape="http://www.inkscape.org/namespaces/inkscape"
   xmlns:sodipodi="http://sodipodi.sourceforge.net/DTD/sodipodi-0.dtd"
   xmlns="http://www.w3.org/2000/svg"
   xmlns:svg="http://www.w3.org/2000/svg"><sodipodi:namedview
     id="namedview7"
     pagecolor="#505050"
     bordercolor="#ffffff"
     borderopacity="1"
     inkscape:showpageshadow="0"
     inkscape:pageopacity="0"
     inkscape:pagecheckerboard="1"
     inkscape:deskcolor="#505050"
     inkscape:document-units="mm"
     showgrid="false"
     inkscape:zoom="1.0179639"
     inkscape:cx="477.42359"
     inkscape:cy="303.05592"
     inkscape:window-width="1920"
     inkscape:window-height="991"
     inkscape:window-x="-9"
     inkscape:window-y="-9"
     inkscape:window-maximized="1"
     inkscape:current-layer="layer1" /><defs
     id="defs2"><filter
       id="filter0_d"
       x="-8.3941097"
       y="15.8291"
       width="116.727"
       height="92.245598"
       filterUnits="userSpaceOnUse"
       color-interpolation-filters="sRGB"><feFlood
         flood-opacity="0"
         result="BackgroundImageFix"
         id="feFlood263" /><feColorMatrix
         in="SourceAlpha"
         type="matrix"
         values="0 0 0 0 0 0 0 0 0 0 0 0 0 0 0 0 0 0 127 0"
         id="feColorMatrix265" /><feOffset
         id="feOffset267" /><feGaussianBlur
         stdDeviation="4.16667"
         id="feGaussianBlur269" /><feColorMatrix
         type="matrix"
         values="0 0 0 0 0 0 0 0 0 0 0 0 0 0 0 0 0 0 0.25 0"
         id="feColorMatrix271" /><feBlend
         mode="overlay"
         in2="BackgroundImageFix"
         result="effect1_dropShadow"
         id="feBlend273" /><feBlend
         mode="normal"
         in="SourceGraphic"
         in2="effect1_dropShadow"
         result="shape"
         id="feBlend275" /></filter><filter
       id="filter1_d"
       x="60.416698"
       y="-8.0755796"
       width="47.916698"
       height="116.151"
       filterUnits="userSpaceOnUse"
       color-interpolation-filters="sRGB"><feFlood
         flood-opacity="0"
         result="BackgroundImageFix"
         id="feFlood278" /><feColorMatrix
         in="SourceAlpha"
         type="matrix"
         values="0 0 0 0 0 0 0 0 0 0 0 0 0 0 0 0 0 0 127 0"
         id="feColorMatrix280" /><feOffset
         id="feOffset282" /><feGaussianBlur
         stdDeviation="4.16667"
         id="feGaussianBlur284" /><feColorMatrix
         type="matrix"
         values="0 0 0 0 0 0 0 0 0 0 0 0 0 0 0 0 0 0 0.25 0"
         id="feColorMatrix286" /><feBlend
         mode="overlay"
         in2="BackgroundImageFix"
         result="effect1_dropShadow"
         id="feBlend288" /><feBlend
         mode="normal"
         in="SourceGraphic"
         in2="effect1_dropShadow"
         result="shape"
         id="feBlend290" /></filter><linearGradient
       id="paint0_linear"
       x1="49.939201"
       y1="0.25781199"
       x2="49.939201"
       y2="99.742302"
       gradientUnits="userSpaceOnUse"><stop
         stop-color="white"
         id="stop293" /><stop
         offset="1"
         stop-color="white"
         stop-opacity="0"
         id="stop295" /></linearGradient></defs><g
     inkscape:label="圖層 1"
     inkscape:groupmode="layer"
     id="layer1"><path
       d="m 111.84468,30.188701 v 53.126436 c 0,1.82621 -1.49418,3.32039 -3.32039,3.32039 H 68.679474 c 0,-9.17261 -7.42939,-16.602013 -16.601998,-16.602013 H 38.795858 c -9.172606,0 -16.602003,7.429403 -16.602003,16.602013 h -6.640772 c -1.826243,0 -3.320423,-1.49418 -3.320423,-3.32039 V 30.188701 Z M 15.553083,3.6255042 c -7.32565,0 -13.281617,5.955967 -13.281617,13.2816168 v 66.408016 c 0,7.32561 5.955967,13.28158 13.281617,13.28158 h 92.971207 c 7.32561,0 13.28158,-5.95597 13.28158,-13.28158 V 16.907121 c 0,-7.3256498 -5.95597,-13.2816168 -13.28158,-13.2816168 z M 58.718284,50.111127 a 13.281601,13.281601 0 1 0 -26.563197,0 13.2816,13.2816 0 1 0 26.563197,0 z m 21.582593,-9.961231 c -2.760106,0 -4.980596,2.220519 -4.980596,4.980634 0,2.760078 2.22049,4.980597 4.980596,4.980597 h 16.602 c 2.76008,0 4.980603,-2.220519 4.980603,-4.980597 0,-2.760115 -2.220523,-4.980634 -4.980603,-4.980634 z m 0,19.922428 c -2.760106,0 -4.980596,2.22052 -4.980596,4.9806 0,2.76007 2.22049,4.98059 4.980596,4.98059 h 16.602 c 2.76008,0 4.980603,-2.22052 4.980603,-4.98059 0,-2.76008 -2.220523,-4.9806 -4.980603,-4.9806 z"
       id="path17"
       style="fill:#00112b;stroke-width:0.207525" /><g
       style="fill:none"
       id="g331"
       transform="matrix(0.38959813,0,0,0.38959813,84.609887,57.394765)"><g
         mask="url(#mask0)"
         id="g261"><path
           d="M 96.4614,10.7962 75.8569,0.875542 C 73.4719,-0.272773 70.6217,0.211611 68.75,2.08333 L 1.29858,63.5832 c -1.814273,1.6541 -1.812187,4.5105 0.0045,6.162 l 5.50964,5.0088 c 1.48521,1.3502 3.72198,1.4496 5.32108,0.2365 L 93.3609,13.3699 C 96.086,11.3026 100,13.2462 100,16.6667 v -0.2392 c 0,-2.401 -1.3754,-4.5897 -3.5386,-5.6313 z"
           fill="#0065a9"
           id="path247" /><g
           filter="url(#filter0_d)"
           id="g251"><path
             d="m 96.4614,89.2038 -20.6045,9.9207 c -2.385,1.1485 -5.2352,0.6639 -7.1069,-1.2078 L 1.29858,36.4169 c -1.814273,-1.6542 -1.812187,-4.5106 0.0045,-6.1621 L 6.81272,25.246 C 8.29793,23.8958 10.5347,23.7964 12.1338,25.0095 L 93.3609,86.6301 C 96.086,88.6974 100,86.7538 100,83.3334 v 0.2392 c 0,2.4009 -1.3754,4.5896 -3.5386,5.6312 z"
             fill="#007acc"
             id="path249" /></g><g
           filter="url(#filter1_d)"
           id="g255"><path
             d="M 75.8578,99.1263 C 73.4721,100.274 70.6219,99.7885 68.75,97.9166 71.0564,100.223 75,98.5895 75,95.3278 V 4.67213 C 75,1.41039 71.0564,-0.223106 68.75,2.08329 70.6219,0.211402 73.4721,-0.273666 75.8578,0.873633 L 96.4587,10.7807 C 98.6234,11.8217 100,14.0112 100,16.4132 v 67.1739 c 0,2.402 -1.3766,4.5915 -3.5414,5.6325 z"
             fill="#1f9cf0"
             id="path253" /></g><g
           style="mix-blend-mode:overlay"
           opacity="0.25"
           id="g259"><path
             fill-rule="evenodd"
             clip-rule="evenodd"
             d="m 70.8511,99.3171 c 1.575,0.6135 3.371,0.5742 4.9606,-0.1907 L 96.4,89.2197 c 2.1634,-1.041 3.5392,-3.2305 3.5392,-5.6326 V 16.4133 c 0,-2.4021 -1.3757,-4.5916 -3.5391,-5.6326 L 75.8117,0.873695 C 73.7255,-0.13019 71.2838,0.115699 69.4527,1.44688 69.1912,1.63705 68.942,1.84937 68.7082,2.08335 L 29.2943,38.0414 12.1264,25.0096 C 10.5283,23.7964 8.29285,23.8959 6.80855,25.246 l -5.5063,5.0088 c -1.815584,1.6516 -1.817665,4.5079 -0.0045,6.1621 L 16.1863,50 1.29775,63.5832 c -1.813165,1.6542 -1.811084,4.5105 0.0045,6.162 l 5.5063,5.0088 c 1.4843,1.3502 3.71975,1.4496 5.31785,0.2365 L 29.2943,61.9586 68.7082,97.9167 c 0.6235,0.6238 1.3556,1.0937 2.1429,1.4004 z M 74.9544,27.2989 45.0483,50 74.9544,72.7012 Z"
             fill="url(#paint0_linear)"
             id="path257"
             style="fill:url(#paint0_linear)" /></g></g></g></g></svg>
